HIERARCHY
ROOT ui
{
	 OFFSET 0 0 0
	 CHANNELS 3 XPosition YPosition Z Position
	 EndSite
	 {
	 OFFSET 0 -1 0
	 }
}
ROOT li
{
	 OFFSET 0 0 0
	 CHANNELS 3 XPosition YPosition Z Position
	 EndSite
	 {
	 OFFSET 0 -1 0
	 }
}
ROOT ul
{
	 OFFSET 0 0 0
	 CHANNELS 3 XPosition YPosition Z Position
	 EndSite
	 {
	 OFFSET 0 -1 0
	 }
}
ROOT ll
{
	 OFFSET 0 0 0
	 CHANNELS 3 XPosition YPosition Z Position
	 EndSite
	 {
	 OFFSET 0 -1 0
	 }
}
ROOT tt
{
	 OFFSET 0 0 0
	 CHANNELS 3 XPosition YPosition Z Position
	 EndSite
	 {
	 OFFSET 0 -1 0
	 }
}
ROOT tb
{
	 OFFSET 0 0 0
	 CHANNELS 3 XPosition YPosition Z Position
	 EndSite
	 {
	 OFFSET 0 -1 0
	 }
}
ROOT td
{
	 OFFSET 0 0 0
	 CHANNELS 3 XPosition YPosition Z Position
	 EndSite
	 {
	 OFFSET 0 -1 0
	 }
}
ROOT v
{
	 OFFSET 0 0 0
	 CHANNELS 3 XPosition YPosition Z Position
	 EndSite
	 {
	 OFFSET 0 -1 0
	 }
}
ROOT bn
{
	 OFFSET 0 0 0
	 CHANNELS 3 XPosition YPosition Z Position
	 EndSite
	 {
	 OFFSET 0 -1 0
	 }
}
MOTION
Frames: 19
Frame Time: 0.002
-8.300790190696717E-4	-9.522830247879028E-4	0		0.5052160339355469	-2.334503662109375	0		-1.1634122314453126	-0.1425138397216797	0		-0.7658052978515625	-2.609912109375	0		1.7079970703125	-0.49327511596679685	0		3.36445458984375	0.10102497100830078	0		4.81383837890625	0.222514892578125	0		5.60573291015625	0.17704180908203124	0		-0.43528952026367185	5.8430341796875	0		
-0.001028777003288269	-0.0011177099943161012	0		0.4514071044921875	-2.32823388671875	0		-1.163652099609375	-0.14234078979492187	0		-0.7667635498046875	-2.609854736328125	0		1.7076549072265625	-0.4939380493164062	0		3.3502861328125	0.10003373718261718	0		4.81370458984375	0.22094772338867188	0		5.60264697265625	0.1619414825439453	0		-0.4327978515625	5.84198388671875	0		
-0.0012383270263671875	-0.0012860770225524903	0		0.4785013427734375	-2.32985107421875	0		-1.1968558349609375	-0.1377955322265625	0		-0.8006915893554688	-2.60542578125	0		1.687313232421875	-0.4933822326660156	0		3.361049072265625	0.09375770568847656	0		4.81662744140625	0.22533172607421875	0		5.605369140625	0.17087936401367188	0		-0.2688282470703125	5.8821103515625	0		
0.0025896790027618408	0.0024991490840911867	0		0.4557006225585937	-2.321904296875	0		-1.1570814208984375	-0.13507965087890625	0		-0.7646805419921875	-2.606789794921875	0		1.7099853515625	-0.4913077087402344	0		3.36305517578125	0.10958799743652343	0		4.81647509765625	0.22376325988769533	0		5.6051767578125	0.16781222534179688	0		-0.2673363342285156	5.88201953125	0		
0.0023666000366210937	0.002333141088485718	0		0.4787579345703125	-2.32748291015625	0		-1.197376220703125	-0.13744230651855469	0		-0.80262841796875	-2.605299560546875	0		1.6865882568359376	-0.4946843566894531	0		3.367779052734375	0.10141104888916015	0		4.816314453125	0.2222333526611328	0		5.60498046875	0.1648207244873047	0		-0.2658935852050781	5.8819296875	0		
0.0021393558979034425	0.0021733050346374513	0		0.47585861206054686	-2.330748291015625	0		-1.1616441650390625	-0.137711669921875	0		-0.7386812744140625	-2.61502783203125	0		1.7451966552734375	-0.4980197448730469	0		3.36757861328125	0.10033280181884766	0		4.8071474609375	0.22086903381347656	0		5.604783203125	0.1619394989013672	0		-0.26451629638671875	5.8818427734375	0		
-0.002139784097671509	-0.0019281049966812134	0		0.4750208435058594	-2.33102294921875	0		-1.19197021484375	-0.14218739318847656	0		-0.80752587890625	-2.609143310546875	0		1.68281640625	-0.4998564147949219	0		3.358399658203125	0.10141595458984375	0		4.81289990234375	0.21339170837402344	0		5.60458447265625	0.1591905975341797	0		-0.39745169067382813	5.863423828125	0		
-0.002371889114379883	-0.0020677719116210936	0		0.4762508239746094	-2.328305908203125	0		-1.18514892578125	-0.13512205505371094	0		-0.7724052734375	-2.6095390625	0		1.685511474609375	-0.4964507751464844	0		3.339283203125	0.10768537139892578	0		4.80679736328125	0.21813731384277343	0		5.60857568359375	0.13915827941894532	0		-0.39525942993164065	5.861369140625	0		
0.007537021160125733	0.008675565719604492	0		0.4795281982421875	-2.32459619140625	0		-1.1773223876953125	-0.12807711791992188	0		-0.7704508056640625	-2.62552392578125	0		1.6912669677734375	-0.48904885864257813	0		3.379009033203125	0.10126530456542969	0		4.804603515625	0.21591595458984375	0		5.6093115234375	0.17820565795898438	0		-0.24475155639648438	5.889412109375	0		
-0.0037162759304046633	0.006705049037933349	0		0.502723876953125	-2.330127685546875	0		-1.1446353759765624	-0.13236534118652343	0		-0.7400855712890625	-2.6128759765625	0		1.704811279296875	-0.4987132568359375	0		3.361841796875	0.10363785552978516	0		4.81951123046875	0.22155827331542968	0		5.60691552734375	0.16388479614257812	0		-0.3930775451660156	5.86130615234375	0		
9.907050132751465E-4	0.0015417189598083496	0		0.47200006103515624	-2.331928466796875	0		-1.1818863525390626	-0.13173924255371094	0		-0.812809814453125	-2.60986669921875	0		1.7014296875	-0.5031166687011719	0		3.347636474609375	0.10304438781738282	0		4.8013564453125	0.22272227478027343	0		5.6038076171875	0.1497613067626953	0		-0.2588357849121094	5.88151708984375	0		
-0.003286631107330322	-0.0024876708984375	0		0.47031207275390624	-2.334086669921875	0		-1.1491785888671875	-0.1350460205078125	0		-0.7598110961914063	-2.631524169921875	0		1.701111328125	-0.5035190734863281	0		3.3622685546875	0.09013225555419922	0		4.811984375	0.20759181213378905	0		5.6007021484375	0.13581214904785155	0		-0.3912420959472656	5.86127783203125	0		
-0.003506521940231323	-0.002557157039642334	0		0.44678826904296876	-2.32692431640625	0		-1.219360107421875	-0.12996238708496094	0		-0.7805093383789062	-2.63318994140625	0		1.683875	-0.4986504211425781	0		3.34806591796875	0.08967420196533203	0		4.80588330078125	0.21277418518066407	0		5.6034423828125	0.14606211853027343	0		-0.256177490234375	5.88044287109375	0		
3.347760140895843E-4	0.0013302730321884154	0		0.4742059326171875	-2.32743896484375	0		-1.17855615234375	-0.1273945541381836	0		-0.7899981689453125	-2.6230009765625	0		1.683583251953125	-0.49897308349609376	0		3.36103125	0.10090867614746094	0		4.81878515625	0.2177796325683594	0		5.60618994140625	0.15647264099121094	0		-0.37559124755859374	5.87208447265625	0		
1.302649974822998E-4	0.0012847059965133668	0		0.47164007568359373	-2.329524169921875	0		-1.2157755126953125	-0.12675474548339843	0		-0.7497920532226563	-2.638504150390625	0		1.700235595703125	-0.5044966125488282	0		3.351744140625	0.09350798034667969	0		4.8086123046875	0.21718336486816406	0		5.6031025390625	0.14301329040527344	0		-0.2558127746582031	5.88143017578125	0		
-6.336099654436111E-5	0.0012504810094833374	0		0.4960711669921875	-2.334971435546875	0		-1.1420072021484375	-0.12867372131347657	0		-0.8179550170898438	-2.611485595703125	0		1.6999764404296875	-0.5047513732910156	0		3.374658935546875	0.09971424865722656	0		4.81047509765625	0.21849702453613282	0		5.609365234375	0.14149668884277344	0		-0.3885404052734375	5.86130517578125	0		
-0.004299997806549072	-0.0027160239219665527	0		0.4676205139160156	-2.3346552734375	0		-1.216180908203125	-0.12651275634765624	0		-0.7855151977539062	-2.616882080078125	0		1.6997369384765626	-0.5049739379882813	0		3.346492919921875	0.09969355773925781	0		4.8142060546875	0.2098546142578125	0		5.609220703125	0.14033749389648437	0		-0.254736083984375	5.881435546875	0		
-0.004464365005493164	-0.0027296938896179197	0		0.4682397155761719	-2.332733154296875	0		-1.210430419921875	-0.13148448181152345	0		-0.7743274536132813	-2.642982666015625	0		1.6825931396484375	-0.499923828125	0		3.351367431640625	0.10125615692138672	0		4.80506494140625	0.2094635925292969	0		5.602669921875	0.13953178405761718	0		-0.3724420166015625	5.8711376953125	0		
0.00249118709564209	0.004164072036743164	0		0.4739763488769531	-2.325869384765625	0		-1.1614481201171876	-0.1220826644897461	0		-0.7475933837890625	-2.634304931640625	0		1.7023853759765626	-0.5013750915527344	0		3.37225927734375	0.10263330078125	0		4.79904150390625	0.21609249877929687	0		5.60547900390625	0.1506348876953125	0		-0.22263211059570312	5.8980185546875	0		
